<mxfile host="app.diagrams.net" agent="Mozilla/5.0 (Windows NT 10.0; Win64; x64) AppleWebKit/537.36 (KHTML, like Gecko) Chrome/138.0.0.0 Safari/537.36" version="28.0.7" pages="2">
  <diagram name="Usecase" id="d8g3UD29nhrE9Jz_xnQ0">
    <mxGraphModel dx="2416" dy="699" grid="1" gridSize="10" guides="1" tooltips="1" connect="1" arrows="1" fold="1" page="1" pageScale="1" pageWidth="850" pageHeight="1100" math="0" shadow="0">
      <root>
        <mxCell id="0" />
        <mxCell id="1" parent="0" />
        <mxCell id="kQBeB5GeI3GjJYE6ia61-3" value="" style="rounded=0;whiteSpace=wrap;html=1;" parent="1" vertex="1">
          <mxGeometry x="90" y="10" width="600" height="630" as="geometry" />
        </mxCell>
        <mxCell id="kQBeB5GeI3GjJYE6ia61-1" value="Student" style="shape=umlActor;verticalLabelPosition=bottom;verticalAlign=top;html=1;outlineConnect=0;" parent="1" vertex="1">
          <mxGeometry x="-20" y="250" width="60" height="110" as="geometry" />
        </mxCell>
        <mxCell id="kQBeB5GeI3GjJYE6ia61-2" value="Register" style="ellipse;whiteSpace=wrap;html=1;" parent="1" vertex="1">
          <mxGeometry x="150" y="35" width="90" height="40" as="geometry" />
        </mxCell>
        <mxCell id="kQBeB5GeI3GjJYE6ia61-4" value="&lt;font style=&quot;font-size: 24px;&quot;&gt;&lt;b&gt;Login&lt;/b&gt;&lt;/font&gt;" style="ellipse;whiteSpace=wrap;html=1;" parent="1" vertex="1">
          <mxGeometry x="317.5" y="290" width="132.5" height="65" as="geometry" />
        </mxCell>
        <mxCell id="kQBeB5GeI3GjJYE6ia61-5" value="View Personal Profile" style="ellipse;whiteSpace=wrap;html=1;" parent="1" vertex="1">
          <mxGeometry x="150" y="100" width="90" height="40" as="geometry" />
        </mxCell>
        <mxCell id="kQBeB5GeI3GjJYE6ia61-6" value="Edit Profile" style="ellipse;whiteSpace=wrap;html=1;" parent="1" vertex="1">
          <mxGeometry x="140" y="240" width="90" height="40" as="geometry" />
        </mxCell>
        <mxCell id="kQBeB5GeI3GjJYE6ia61-7" value="Register for Courses" style="ellipse;whiteSpace=wrap;html=1;" parent="1" vertex="1">
          <mxGeometry x="150" y="170" width="90" height="40" as="geometry" />
        </mxCell>
        <mxCell id="kQBeB5GeI3GjJYE6ia61-8" value="View Enrolled Courses" style="ellipse;whiteSpace=wrap;html=1;" parent="1" vertex="1">
          <mxGeometry x="140" y="360" width="90" height="40" as="geometry" />
        </mxCell>
        <mxCell id="kQBeB5GeI3GjJYE6ia61-9" value="Submit Assignment" style="ellipse;whiteSpace=wrap;html=1;" parent="1" vertex="1">
          <mxGeometry x="140" y="420" width="90" height="40" as="geometry" />
        </mxCell>
        <mxCell id="kQBeB5GeI3GjJYE6ia61-10" value="View Grades" style="ellipse;whiteSpace=wrap;html=1;" parent="1" vertex="1">
          <mxGeometry x="140" y="480" width="90" height="40" as="geometry" />
        </mxCell>
        <mxCell id="kQBeB5GeI3GjJYE6ia61-11" value="Administrator" style="shape=umlActor;verticalLabelPosition=bottom;verticalAlign=top;html=1;outlineConnect=0;" parent="1" vertex="1">
          <mxGeometry x="710" y="460" width="70" height="110" as="geometry" />
        </mxCell>
        <mxCell id="kQBeB5GeI3GjJYE6ia61-12" value="Manage Courses" style="ellipse;whiteSpace=wrap;html=1;" parent="1" vertex="1">
          <mxGeometry x="272.5" y="440" width="105" height="50" as="geometry" />
        </mxCell>
        <mxCell id="kQBeB5GeI3GjJYE6ia61-13" value="Assign Students to Courses" style="ellipse;whiteSpace=wrap;html=1;" parent="1" vertex="1">
          <mxGeometry x="272.5" y="380" width="120" height="50" as="geometry" />
        </mxCell>
        <mxCell id="kQBeB5GeI3GjJYE6ia61-14" value="Generate Reports" style="ellipse;whiteSpace=wrap;html=1;" parent="1" vertex="1">
          <mxGeometry x="272.5" y="500" width="105" height="50" as="geometry" />
        </mxCell>
        <mxCell id="kQBeB5GeI3GjJYE6ia61-15" value="Faculty" style="shape=umlActor;verticalLabelPosition=bottom;verticalAlign=top;html=1;outlineConnect=0;" parent="1" vertex="1">
          <mxGeometry x="720" y="195" width="60" height="100" as="geometry" />
        </mxCell>
        <mxCell id="kQBeB5GeI3GjJYE6ia61-16" value="View Assigned Courses" style="ellipse;whiteSpace=wrap;html=1;" parent="1" vertex="1">
          <mxGeometry x="517.5" y="25" width="105" height="50" as="geometry" />
        </mxCell>
        <mxCell id="kQBeB5GeI3GjJYE6ia61-19" value="Grade Assignments" style="ellipse;whiteSpace=wrap;html=1;" parent="1" vertex="1">
          <mxGeometry x="510" y="225" width="105" height="50" as="geometry" />
        </mxCell>
        <mxCell id="kQBeB5GeI3GjJYE6ia61-20" value="Upload Materials" style="ellipse;whiteSpace=wrap;html=1;" parent="1" vertex="1">
          <mxGeometry x="510" y="160" width="105" height="50" as="geometry" />
        </mxCell>
        <mxCell id="kQBeB5GeI3GjJYE6ia61-21" value="View Student Submissions" style="ellipse;whiteSpace=wrap;html=1;" parent="1" vertex="1">
          <mxGeometry x="510" y="95" width="105" height="50" as="geometry" />
        </mxCell>
        <mxCell id="kQBeB5GeI3GjJYE6ia61-24" value="&lt;b&gt;&lt;font style=&quot;font-size: 14px;&quot;&gt;Authenticate User&lt;/font&gt;&lt;/b&gt;" style="ellipse;whiteSpace=wrap;html=1;" parent="1" vertex="1">
          <mxGeometry x="314.38" y="172.5" width="138.75" height="52.5" as="geometry" />
        </mxCell>
        <mxCell id="kQBeB5GeI3GjJYE6ia61-26" value="" style="html=1;verticalAlign=bottom;labelBackgroundColor=none;endArrow=open;endFill=0;dashed=1;rounded=0;exitX=0.5;exitY=0;exitDx=0;exitDy=0;entryX=0.5;entryY=1;entryDx=0;entryDy=0;" parent="1" source="kQBeB5GeI3GjJYE6ia61-4" target="kQBeB5GeI3GjJYE6ia61-24" edge="1">
          <mxGeometry width="160" relative="1" as="geometry">
            <mxPoint x="270" y="330" as="sourcePoint" />
            <mxPoint x="430" y="330" as="targetPoint" />
          </mxGeometry>
        </mxCell>
        <mxCell id="kQBeB5GeI3GjJYE6ia61-27" value="&amp;lt;&amp;lt;include&amp;gt;&amp;gt;" style="edgeLabel;html=1;align=center;verticalAlign=middle;resizable=0;points=[];" parent="kQBeB5GeI3GjJYE6ia61-26" vertex="1" connectable="0">
          <mxGeometry x="-0.3484" y="1" relative="1" as="geometry">
            <mxPoint x="3" y="-5" as="offset" />
          </mxGeometry>
        </mxCell>
        <mxCell id="kQBeB5GeI3GjJYE6ia61-28" value="" style="html=1;verticalAlign=bottom;labelBackgroundColor=none;endArrow=open;endFill=0;dashed=1;rounded=0;exitX=1;exitY=0.5;exitDx=0;exitDy=0;entryX=0;entryY=0.5;entryDx=0;entryDy=0;" parent="1" source="kQBeB5GeI3GjJYE6ia61-2" target="kQBeB5GeI3GjJYE6ia61-29" edge="1">
          <mxGeometry width="160" relative="1" as="geometry">
            <mxPoint x="260" y="54.29000000000002" as="sourcePoint" />
            <mxPoint x="330" y="54" as="targetPoint" />
          </mxGeometry>
        </mxCell>
        <mxCell id="kQBeB5GeI3GjJYE6ia61-30" value="&amp;lt;&amp;lt;include&amp;gt;&amp;gt;" style="edgeLabel;html=1;align=center;verticalAlign=middle;resizable=0;points=[];" parent="kQBeB5GeI3GjJYE6ia61-28" vertex="1" connectable="0">
          <mxGeometry x="-0.3183" y="-1" relative="1" as="geometry">
            <mxPoint x="7" y="-1" as="offset" />
          </mxGeometry>
        </mxCell>
        <mxCell id="kQBeB5GeI3GjJYE6ia61-29" value="Validate Input" style="ellipse;whiteSpace=wrap;html=1;" parent="1" vertex="1">
          <mxGeometry x="352.5" y="35" width="90" height="40" as="geometry" />
        </mxCell>
        <mxCell id="kQBeB5GeI3GjJYE6ia61-31" value="Manage User Accounts" style="ellipse;whiteSpace=wrap;html=1;" parent="1" vertex="1">
          <mxGeometry x="540" y="575" width="105" height="50" as="geometry" />
        </mxCell>
        <mxCell id="kQBeB5GeI3GjJYE6ia61-35" value="Edit Profile" style="ellipse;whiteSpace=wrap;html=1;" parent="1" vertex="1">
          <mxGeometry x="345" y="100" width="90" height="40" as="geometry" />
        </mxCell>
        <mxCell id="kQBeB5GeI3GjJYE6ia61-36" value="" style="html=1;verticalAlign=bottom;labelBackgroundColor=none;endArrow=open;endFill=0;dashed=1;rounded=0;entryX=1;entryY=0.5;entryDx=0;entryDy=0;exitX=0;exitY=0.5;exitDx=0;exitDy=0;" parent="1" source="kQBeB5GeI3GjJYE6ia61-35" target="kQBeB5GeI3GjJYE6ia61-5" edge="1">
          <mxGeometry width="160" relative="1" as="geometry">
            <mxPoint x="340" y="290" as="sourcePoint" />
            <mxPoint x="500" y="290" as="targetPoint" />
          </mxGeometry>
        </mxCell>
        <mxCell id="kQBeB5GeI3GjJYE6ia61-37" value="&amp;lt;&amp;lt;extend&amp;gt;&amp;gt;" style="edgeLabel;html=1;align=center;verticalAlign=middle;resizable=0;points=[];" parent="kQBeB5GeI3GjJYE6ia61-36" vertex="1" connectable="0">
          <mxGeometry x="-0.0102" y="2" relative="1" as="geometry">
            <mxPoint y="-2" as="offset" />
          </mxGeometry>
        </mxCell>
        <mxCell id="kQBeB5GeI3GjJYE6ia61-39" value="" style="endArrow=none;html=1;rounded=0;entryX=0;entryY=0.5;entryDx=0;entryDy=0;" parent="1" source="kQBeB5GeI3GjJYE6ia61-1" target="kQBeB5GeI3GjJYE6ia61-2" edge="1">
          <mxGeometry width="50" height="50" relative="1" as="geometry">
            <mxPoint x="390" y="320" as="sourcePoint" />
            <mxPoint x="440" y="270" as="targetPoint" />
          </mxGeometry>
        </mxCell>
        <mxCell id="kQBeB5GeI3GjJYE6ia61-40" value="" style="endArrow=none;html=1;rounded=0;entryX=0;entryY=0.5;entryDx=0;entryDy=0;" parent="1" source="kQBeB5GeI3GjJYE6ia61-1" target="kQBeB5GeI3GjJYE6ia61-4" edge="1">
          <mxGeometry width="50" height="50" relative="1" as="geometry">
            <mxPoint x="10" y="300" as="sourcePoint" />
            <mxPoint x="440" y="270" as="targetPoint" />
          </mxGeometry>
        </mxCell>
        <mxCell id="kQBeB5GeI3GjJYE6ia61-41" value="" style="endArrow=none;html=1;rounded=0;entryX=0;entryY=0.5;entryDx=0;entryDy=0;" parent="1" source="kQBeB5GeI3GjJYE6ia61-1" target="kQBeB5GeI3GjJYE6ia61-6" edge="1">
          <mxGeometry width="50" height="50" relative="1" as="geometry">
            <mxPoint x="10" y="290" as="sourcePoint" />
            <mxPoint x="440" y="270" as="targetPoint" />
          </mxGeometry>
        </mxCell>
        <mxCell id="kQBeB5GeI3GjJYE6ia61-42" value="" style="endArrow=none;html=1;rounded=0;entryX=0;entryY=0.5;entryDx=0;entryDy=0;" parent="1" source="kQBeB5GeI3GjJYE6ia61-1" target="kQBeB5GeI3GjJYE6ia61-7" edge="1">
          <mxGeometry width="50" height="50" relative="1" as="geometry">
            <mxPoint x="20" y="300" as="sourcePoint" />
            <mxPoint x="440" y="270" as="targetPoint" />
          </mxGeometry>
        </mxCell>
        <mxCell id="kQBeB5GeI3GjJYE6ia61-43" value="" style="endArrow=none;html=1;rounded=0;entryX=0;entryY=0.5;entryDx=0;entryDy=0;" parent="1" source="kQBeB5GeI3GjJYE6ia61-1" target="kQBeB5GeI3GjJYE6ia61-5" edge="1">
          <mxGeometry width="50" height="50" relative="1" as="geometry">
            <mxPoint x="40" y="320" as="sourcePoint" />
            <mxPoint x="440" y="270" as="targetPoint" />
          </mxGeometry>
        </mxCell>
        <mxCell id="kQBeB5GeI3GjJYE6ia61-44" value="" style="endArrow=none;html=1;rounded=0;entryX=0;entryY=0.5;entryDx=0;entryDy=0;" parent="1" source="kQBeB5GeI3GjJYE6ia61-1" target="kQBeB5GeI3GjJYE6ia61-8" edge="1">
          <mxGeometry width="50" height="50" relative="1" as="geometry">
            <mxPoint x="390" y="320" as="sourcePoint" />
            <mxPoint x="440" y="270" as="targetPoint" />
          </mxGeometry>
        </mxCell>
        <mxCell id="kQBeB5GeI3GjJYE6ia61-45" value="" style="endArrow=none;html=1;rounded=0;entryX=0;entryY=0.5;entryDx=0;entryDy=0;" parent="1" source="kQBeB5GeI3GjJYE6ia61-1" target="kQBeB5GeI3GjJYE6ia61-9" edge="1">
          <mxGeometry width="50" height="50" relative="1" as="geometry">
            <mxPoint x="390" y="320" as="sourcePoint" />
            <mxPoint x="440" y="270" as="targetPoint" />
          </mxGeometry>
        </mxCell>
        <mxCell id="kQBeB5GeI3GjJYE6ia61-46" value="" style="endArrow=none;html=1;rounded=0;exitX=1;exitY=1;exitDx=0;exitDy=0;exitPerimeter=0;entryX=0;entryY=0.5;entryDx=0;entryDy=0;" parent="1" source="kQBeB5GeI3GjJYE6ia61-1" target="kQBeB5GeI3GjJYE6ia61-10" edge="1">
          <mxGeometry width="50" height="50" relative="1" as="geometry">
            <mxPoint x="390" y="320" as="sourcePoint" />
            <mxPoint x="440" y="270" as="targetPoint" />
          </mxGeometry>
        </mxCell>
        <mxCell id="kQBeB5GeI3GjJYE6ia61-47" value="" style="endArrow=none;html=1;rounded=0;exitX=1;exitY=0.5;exitDx=0;exitDy=0;" parent="1" source="kQBeB5GeI3GjJYE6ia61-14" target="kQBeB5GeI3GjJYE6ia61-11" edge="1">
          <mxGeometry width="50" height="50" relative="1" as="geometry">
            <mxPoint x="315" y="700" as="sourcePoint" />
            <mxPoint x="365" y="650" as="targetPoint" />
          </mxGeometry>
        </mxCell>
        <mxCell id="kQBeB5GeI3GjJYE6ia61-48" value="" style="endArrow=none;html=1;rounded=0;exitX=1;exitY=0.5;exitDx=0;exitDy=0;" parent="1" source="kQBeB5GeI3GjJYE6ia61-13" target="kQBeB5GeI3GjJYE6ia61-11" edge="1">
          <mxGeometry width="50" height="50" relative="1" as="geometry">
            <mxPoint x="315" y="700" as="sourcePoint" />
            <mxPoint x="365" y="650" as="targetPoint" />
          </mxGeometry>
        </mxCell>
        <mxCell id="kQBeB5GeI3GjJYE6ia61-49" value="" style="endArrow=none;html=1;rounded=0;exitX=1;exitY=0.5;exitDx=0;exitDy=0;" parent="1" source="kQBeB5GeI3GjJYE6ia61-12" target="kQBeB5GeI3GjJYE6ia61-11" edge="1">
          <mxGeometry width="50" height="50" relative="1" as="geometry">
            <mxPoint x="315" y="700" as="sourcePoint" />
            <mxPoint x="365" y="650" as="targetPoint" />
          </mxGeometry>
        </mxCell>
        <mxCell id="kQBeB5GeI3GjJYE6ia61-50" value="" style="endArrow=none;html=1;rounded=0;exitX=1;exitY=0;exitDx=0;exitDy=0;" parent="1" source="kQBeB5GeI3GjJYE6ia61-31" target="kQBeB5GeI3GjJYE6ia61-11" edge="1">
          <mxGeometry width="50" height="50" relative="1" as="geometry">
            <mxPoint x="622.4999999999964" y="630" as="sourcePoint" />
            <mxPoint x="702.5" y="539.565217391303" as="targetPoint" />
          </mxGeometry>
        </mxCell>
        <mxCell id="kQBeB5GeI3GjJYE6ia61-51" value="" style="endArrow=none;html=1;rounded=0;exitX=1;exitY=0.5;exitDx=0;exitDy=0;" parent="1" source="kQBeB5GeI3GjJYE6ia61-20" target="kQBeB5GeI3GjJYE6ia61-15" edge="1">
          <mxGeometry width="50" height="50" relative="1" as="geometry">
            <mxPoint x="890" as="sourcePoint" />
            <mxPoint x="940" y="-50" as="targetPoint" />
          </mxGeometry>
        </mxCell>
        <mxCell id="kQBeB5GeI3GjJYE6ia61-52" value="" style="endArrow=none;html=1;rounded=0;exitX=1;exitY=0.5;exitDx=0;exitDy=0;" parent="1" source="kQBeB5GeI3GjJYE6ia61-16" target="kQBeB5GeI3GjJYE6ia61-15" edge="1">
          <mxGeometry width="50" height="50" relative="1" as="geometry">
            <mxPoint x="890" as="sourcePoint" />
            <mxPoint x="940" y="-50" as="targetPoint" />
          </mxGeometry>
        </mxCell>
        <mxCell id="kQBeB5GeI3GjJYE6ia61-53" value="" style="endArrow=none;html=1;rounded=0;exitX=1;exitY=0.5;exitDx=0;exitDy=0;" parent="1" source="kQBeB5GeI3GjJYE6ia61-19" target="kQBeB5GeI3GjJYE6ia61-15" edge="1">
          <mxGeometry width="50" height="50" relative="1" as="geometry">
            <mxPoint x="890" as="sourcePoint" />
            <mxPoint x="940" y="-50" as="targetPoint" />
          </mxGeometry>
        </mxCell>
        <mxCell id="kQBeB5GeI3GjJYE6ia61-54" value="" style="endArrow=none;html=1;rounded=0;exitX=1;exitY=0.5;exitDx=0;exitDy=0;" parent="1" source="kQBeB5GeI3GjJYE6ia61-21" target="kQBeB5GeI3GjJYE6ia61-15" edge="1">
          <mxGeometry width="50" height="50" relative="1" as="geometry">
            <mxPoint x="890" as="sourcePoint" />
            <mxPoint x="940" y="-50" as="targetPoint" />
          </mxGeometry>
        </mxCell>
        <mxCell id="z61giMxVSY3r0wxF8nH8-1" value="Backup &amp;amp; Restore Data" style="ellipse;whiteSpace=wrap;html=1;" vertex="1" parent="1">
          <mxGeometry x="272.5" y="570" width="105" height="50" as="geometry" />
        </mxCell>
        <mxCell id="z61giMxVSY3r0wxF8nH8-5" value="Create Assignment" style="ellipse;whiteSpace=wrap;html=1;" vertex="1" parent="1">
          <mxGeometry x="517.5" y="330" width="105" height="50" as="geometry" />
        </mxCell>
        <mxCell id="z61giMxVSY3r0wxF8nH8-6" value="" style="endArrow=none;html=1;rounded=0;exitX=1;exitY=0.5;exitDx=0;exitDy=0;" edge="1" parent="1" source="z61giMxVSY3r0wxF8nH8-5" target="kQBeB5GeI3GjJYE6ia61-15">
          <mxGeometry width="50" height="50" relative="1" as="geometry">
            <mxPoint x="1025" y="270" as="sourcePoint" />
            <mxPoint x="1290" y="198" as="targetPoint" />
            <Array as="points" />
          </mxGeometry>
        </mxCell>
        <mxCell id="arB8_usBfVyL0v6Nw08q-4" style="edgeStyle=orthogonalEdgeStyle;rounded=0;orthogonalLoop=1;jettySize=auto;html=1;exitX=0.5;exitY=1;exitDx=0;exitDy=0;" edge="1" parent="1" source="kQBeB5GeI3GjJYE6ia61-13" target="kQBeB5GeI3GjJYE6ia61-13">
          <mxGeometry relative="1" as="geometry" />
        </mxCell>
        <mxCell id="arB8_usBfVyL0v6Nw08q-8" value="" style="endArrow=none;html=1;rounded=0;exitX=1;exitY=0.5;exitDx=0;exitDy=0;" edge="1" parent="1" source="kQBeB5GeI3GjJYE6ia61-4" target="kQBeB5GeI3GjJYE6ia61-15">
          <mxGeometry width="50" height="50" relative="1" as="geometry">
            <mxPoint x="780" y="522" as="sourcePoint" />
            <mxPoint x="878" y="400" as="targetPoint" />
            <Array as="points" />
          </mxGeometry>
        </mxCell>
        <mxCell id="arB8_usBfVyL0v6Nw08q-9" value="" style="endArrow=none;html=1;rounded=0;exitX=0.5;exitY=1;exitDx=0;exitDy=0;" edge="1" parent="1" source="kQBeB5GeI3GjJYE6ia61-4" target="kQBeB5GeI3GjJYE6ia61-11">
          <mxGeometry width="50" height="50" relative="1" as="geometry">
            <mxPoint x="770" y="512" as="sourcePoint" />
            <mxPoint x="868" y="390" as="targetPoint" />
            <Array as="points" />
          </mxGeometry>
        </mxCell>
        <mxCell id="arB8_usBfVyL0v6Nw08q-10" value="" style="endArrow=none;html=1;rounded=0;exitX=1;exitY=0.5;exitDx=0;exitDy=0;" edge="1" parent="1" source="z61giMxVSY3r0wxF8nH8-1" target="kQBeB5GeI3GjJYE6ia61-11">
          <mxGeometry width="50" height="50" relative="1" as="geometry">
            <mxPoint x="560" y="852" as="sourcePoint" />
            <mxPoint x="658" y="730" as="targetPoint" />
            <Array as="points" />
          </mxGeometry>
        </mxCell>
      </root>
    </mxGraphModel>
  </diagram>
  <diagram id="d-cv-43RuVheWeFBSGWG" name="Class Diagram">
    <mxGraphModel dx="1308" dy="1799" grid="1" gridSize="10" guides="1" tooltips="1" connect="1" arrows="1" fold="1" page="1" pageScale="1" pageWidth="850" pageHeight="1100" math="0" shadow="0">
      <root>
        <mxCell id="0" />
        <mxCell id="1" parent="0" />
        <mxCell id="dVDMhMBenEkxvUkVHYLV-33" value="" style="rounded=0;whiteSpace=wrap;html=1;" parent="1" vertex="1">
          <mxGeometry x="1970" y="820" width="950" height="640" as="geometry" />
        </mxCell>
        <mxCell id="Y3dAuCJhpeIYonLnR9uq-1" value="&lt;font style=&quot;font-size: 14px;&quot;&gt;&amp;lt;&amp;lt;abstract&amp;gt;&amp;gt; User&lt;/font&gt;" style="swimlane;fontStyle=1;align=center;verticalAlign=top;childLayout=stackLayout;horizontal=1;startSize=26;horizontalStack=0;resizeParent=1;resizeParentMax=0;resizeLast=0;collapsible=1;marginBottom=0;whiteSpace=wrap;html=1;" parent="1" vertex="1">
          <mxGeometry x="510" y="-162" width="190" height="138" as="geometry" />
        </mxCell>
        <mxCell id="Y3dAuCJhpeIYonLnR9uq-2" value="&lt;div&gt;&lt;span style=&quot;font-size: 14px;&quot;&gt;- Id: string&lt;/span&gt;&lt;/div&gt;&lt;div&gt;&lt;span style=&quot;font-size: 14px;&quot;&gt;- FullName: string&lt;/span&gt;&lt;/div&gt;&lt;div&gt;&lt;span style=&quot;font-size: 14px;&quot;&gt;- Email: string&lt;/span&gt;&lt;/div&gt;&lt;div&gt;&lt;span style=&quot;font-size: 14px;&quot;&gt;- Password: string&lt;/span&gt;&lt;/div&gt;&lt;div&gt;&lt;span style=&quot;font-size: 14px;&quot;&gt;- Role: RoleEnum&lt;/span&gt;&lt;/div&gt;" style="text;strokeColor=none;fillColor=none;align=left;verticalAlign=top;spacingLeft=4;spacingRight=4;overflow=hidden;rotatable=0;points=[[0,0.5],[1,0.5]];portConstraint=eastwest;whiteSpace=wrap;html=1;" parent="Y3dAuCJhpeIYonLnR9uq-1" vertex="1">
          <mxGeometry y="26" width="190" height="104" as="geometry" />
        </mxCell>
        <mxCell id="Y3dAuCJhpeIYonLnR9uq-3" value="" style="line;strokeWidth=1;fillColor=none;align=left;verticalAlign=middle;spacingTop=-1;spacingLeft=3;spacingRight=3;rotatable=0;labelPosition=right;points=[];portConstraint=eastwest;strokeColor=inherit;" parent="Y3dAuCJhpeIYonLnR9uq-1" vertex="1">
          <mxGeometry y="130" width="190" height="8" as="geometry" />
        </mxCell>
        <mxCell id="Y3dAuCJhpeIYonLnR9uq-9" value="Faculty" style="swimlane;fontStyle=1;align=center;verticalAlign=top;childLayout=stackLayout;horizontal=1;startSize=26;horizontalStack=0;resizeParent=1;resizeParentMax=0;resizeLast=0;collapsible=1;marginBottom=0;whiteSpace=wrap;html=1;" parent="1" vertex="1">
          <mxGeometry x="400" y="10" width="320" height="68" as="geometry" />
        </mxCell>
        <mxCell id="Y3dAuCJhpeIYonLnR9uq-10" value="- Department: string&lt;div&gt;-&amp;nbsp; AssignedCourses: List&amp;lt;Course&amp;gt;&lt;/div&gt;" style="text;strokeColor=none;fillColor=none;align=left;verticalAlign=top;spacingLeft=4;spacingRight=4;overflow=hidden;rotatable=0;points=[[0,0.5],[1,0.5]];portConstraint=eastwest;whiteSpace=wrap;html=1;" parent="Y3dAuCJhpeIYonLnR9uq-9" vertex="1">
          <mxGeometry y="26" width="320" height="34" as="geometry" />
        </mxCell>
        <mxCell id="Y3dAuCJhpeIYonLnR9uq-11" value="" style="line;strokeWidth=1;fillColor=none;align=left;verticalAlign=middle;spacingTop=-1;spacingLeft=3;spacingRight=3;rotatable=0;labelPosition=right;points=[];portConstraint=eastwest;strokeColor=inherit;" parent="Y3dAuCJhpeIYonLnR9uq-9" vertex="1">
          <mxGeometry y="60" width="320" height="8" as="geometry" />
        </mxCell>
        <mxCell id="dVDMhMBenEkxvUkVHYLV-2" value="Extends" style="endArrow=block;endSize=16;endFill=0;html=1;rounded=0;exitX=0;exitY=1;exitDx=0;exitDy=0;entryX=0;entryY=0.324;entryDx=0;entryDy=0;entryPerimeter=0;" parent="1" source="dVDMhMBenEkxvUkVHYLV-6" target="Y3dAuCJhpeIYonLnR9uq-2" edge="1">
          <mxGeometry width="160" relative="1" as="geometry">
            <mxPoint x="449.9999999999998" y="-202" as="sourcePoint" />
            <mxPoint x="370" y="-330" as="targetPoint" />
            <Array as="points">
              <mxPoint x="400" y="-100" />
            </Array>
          </mxGeometry>
        </mxCell>
        <mxCell id="dVDMhMBenEkxvUkVHYLV-3" value="Extends" style="endArrow=block;endSize=16;endFill=0;html=1;rounded=0;exitX=0;exitY=0.5;exitDx=0;exitDy=0;entryX=-0.003;entryY=0.744;entryDx=0;entryDy=0;entryPerimeter=0;" parent="1" source="Y3dAuCJhpeIYonLnR9uq-10" target="Y3dAuCJhpeIYonLnR9uq-2" edge="1">
          <mxGeometry width="160" relative="1" as="geometry">
            <mxPoint x="370" y="-100" as="sourcePoint" />
            <mxPoint x="350" y="-80" as="targetPoint" />
            <Array as="points">
              <mxPoint x="400" y="-60" />
            </Array>
          </mxGeometry>
        </mxCell>
        <mxCell id="dVDMhMBenEkxvUkVHYLV-6" value="Student" style="swimlane;fontStyle=1;align=center;verticalAlign=top;childLayout=stackLayout;horizontal=1;startSize=26;horizontalStack=0;resizeParent=1;resizeParentMax=0;resizeLast=0;collapsible=1;marginBottom=0;whiteSpace=wrap;html=1;" parent="1" vertex="1">
          <mxGeometry x="400" y="-270" width="280" height="88" as="geometry" />
        </mxCell>
        <mxCell id="dVDMhMBenEkxvUkVHYLV-7" value="- Program: string&lt;div&gt;- EnrolledCourses: List&amp;lt;Course&amp;gt;&lt;/div&gt;&lt;div&gt;-&lt;span style=&quot;background-color: transparent;&quot;&gt;&amp;nbsp;Submissions: List&amp;lt;Submission&amp;gt;&lt;/span&gt;&lt;/div&gt;&lt;div&gt;&amp;nbsp;&lt;/div&gt;" style="text;strokeColor=none;fillColor=none;align=left;verticalAlign=top;spacingLeft=4;spacingRight=4;overflow=hidden;rotatable=0;points=[[0,0.5],[1,0.5]];portConstraint=eastwest;whiteSpace=wrap;html=1;" parent="dVDMhMBenEkxvUkVHYLV-6" vertex="1">
          <mxGeometry y="26" width="280" height="54" as="geometry" />
        </mxCell>
        <mxCell id="dVDMhMBenEkxvUkVHYLV-8" value="" style="line;strokeWidth=1;fillColor=none;align=left;verticalAlign=middle;spacingTop=-1;spacingLeft=3;spacingRight=3;rotatable=0;labelPosition=right;points=[];portConstraint=eastwest;strokeColor=inherit;" parent="dVDMhMBenEkxvUkVHYLV-6" vertex="1">
          <mxGeometry y="80" width="280" height="8" as="geometry" />
        </mxCell>
        <mxCell id="dVDMhMBenEkxvUkVHYLV-10" value="Course" style="swimlane;fontStyle=1;align=center;verticalAlign=top;childLayout=stackLayout;horizontal=1;startSize=26;horizontalStack=0;resizeParent=1;resizeParentMax=0;resizeLast=0;collapsible=1;marginBottom=0;whiteSpace=wrap;html=1;" parent="1" vertex="1">
          <mxGeometry x="890" y="-290" width="200" height="128" as="geometry" />
        </mxCell>
        <mxCell id="dVDMhMBenEkxvUkVHYLV-11" value="&lt;div&gt;- CourseId: string&lt;/div&gt;&lt;div&gt;- CourseName: string&lt;/div&gt;&lt;div&gt;- Instructor: Faculty&lt;/div&gt;&lt;div&gt;- Students: List&amp;lt;Student&amp;gt;&lt;/div&gt;&lt;div&gt;- Assignments: List&amp;lt;Assignment&amp;gt;&lt;/div&gt;" style="text;strokeColor=none;fillColor=none;align=left;verticalAlign=top;spacingLeft=4;spacingRight=4;overflow=hidden;rotatable=0;points=[[0,0.5],[1,0.5]];portConstraint=eastwest;whiteSpace=wrap;html=1;" parent="dVDMhMBenEkxvUkVHYLV-10" vertex="1">
          <mxGeometry y="26" width="200" height="94" as="geometry" />
        </mxCell>
        <mxCell id="dVDMhMBenEkxvUkVHYLV-12" value="" style="line;strokeWidth=1;fillColor=none;align=left;verticalAlign=middle;spacingTop=-1;spacingLeft=3;spacingRight=3;rotatable=0;labelPosition=right;points=[];portConstraint=eastwest;strokeColor=inherit;" parent="dVDMhMBenEkxvUkVHYLV-10" vertex="1">
          <mxGeometry y="120" width="200" height="8" as="geometry" />
        </mxCell>
        <mxCell id="dVDMhMBenEkxvUkVHYLV-14" value="Assignment" style="swimlane;fontStyle=1;align=center;verticalAlign=top;childLayout=stackLayout;horizontal=1;startSize=26;horizontalStack=0;resizeParent=1;resizeParentMax=0;resizeLast=0;collapsible=1;marginBottom=0;whiteSpace=wrap;html=1;" parent="1" vertex="1">
          <mxGeometry x="890" y="-480" width="200" height="118" as="geometry" />
        </mxCell>
        <mxCell id="dVDMhMBenEkxvUkVHYLV-15" value="&lt;div&gt;- AssignmentId: string&lt;/div&gt;&lt;div&gt;- Title: string&lt;/div&gt;&lt;div&gt;- DueDate: DateTime&lt;/div&gt;&lt;div&gt;- Course: Course&amp;nbsp; &amp;nbsp; &amp;nbsp; &amp;nbsp; &amp;nbsp; &amp;nbsp;&amp;nbsp;&lt;/div&gt;&lt;div&gt;- Submissions: List&amp;lt;Submission&amp;gt;&lt;/div&gt;" style="text;strokeColor=none;fillColor=none;align=left;verticalAlign=top;spacingLeft=4;spacingRight=4;overflow=hidden;rotatable=0;points=[[0,0.5],[1,0.5]];portConstraint=eastwest;whiteSpace=wrap;html=1;" parent="dVDMhMBenEkxvUkVHYLV-14" vertex="1">
          <mxGeometry y="26" width="200" height="84" as="geometry" />
        </mxCell>
        <mxCell id="dVDMhMBenEkxvUkVHYLV-16" value="" style="line;strokeWidth=1;fillColor=none;align=left;verticalAlign=middle;spacingTop=-1;spacingLeft=3;spacingRight=3;rotatable=0;labelPosition=right;points=[];portConstraint=eastwest;strokeColor=inherit;" parent="dVDMhMBenEkxvUkVHYLV-14" vertex="1">
          <mxGeometry y="110" width="200" height="8" as="geometry" />
        </mxCell>
        <mxCell id="dVDMhMBenEkxvUkVHYLV-18" value="Submission" style="swimlane;fontStyle=1;align=center;verticalAlign=top;childLayout=stackLayout;horizontal=1;startSize=26;horizontalStack=0;resizeParent=1;resizeParentMax=0;resizeLast=0;collapsible=1;marginBottom=0;whiteSpace=wrap;html=1;" parent="1" vertex="1">
          <mxGeometry x="455" y="-490" width="170" height="138" as="geometry" />
        </mxCell>
        <mxCell id="dVDMhMBenEkxvUkVHYLV-19" value="&lt;div&gt;- SubmissionId: string&lt;/div&gt;&lt;div&gt;- Student: Student&amp;nbsp; &amp;nbsp; &amp;nbsp; &amp;nbsp; &amp;nbsp;&lt;/div&gt;&lt;div&gt;- Assignment: Assignment&amp;nbsp; &amp;nbsp;&amp;nbsp;&lt;/div&gt;&lt;div&gt;- FilePath: string&lt;/div&gt;&lt;div&gt;- Grade: int?&lt;/div&gt;&lt;div&gt;- SubmittedAt: DateTime&lt;/div&gt;" style="text;strokeColor=none;fillColor=none;align=left;verticalAlign=top;spacingLeft=4;spacingRight=4;overflow=hidden;rotatable=0;points=[[0,0.5],[1,0.5]];portConstraint=eastwest;whiteSpace=wrap;html=1;" parent="dVDMhMBenEkxvUkVHYLV-18" vertex="1">
          <mxGeometry y="26" width="170" height="104" as="geometry" />
        </mxCell>
        <mxCell id="dVDMhMBenEkxvUkVHYLV-20" value="" style="line;strokeWidth=1;fillColor=none;align=left;verticalAlign=middle;spacingTop=-1;spacingLeft=3;spacingRight=3;rotatable=0;labelPosition=right;points=[];portConstraint=eastwest;strokeColor=inherit;" parent="dVDMhMBenEkxvUkVHYLV-18" vertex="1">
          <mxGeometry y="130" width="170" height="8" as="geometry" />
        </mxCell>
        <mxCell id="dVDMhMBenEkxvUkVHYLV-22" value="" style="endArrow=diamondThin;endFill=1;endSize=24;html=1;rounded=0;exitX=0.491;exitY=1.149;exitDx=0;exitDy=0;exitPerimeter=0;entryX=0.5;entryY=0;entryDx=0;entryDy=0;" parent="1" source="dVDMhMBenEkxvUkVHYLV-16" target="dVDMhMBenEkxvUkVHYLV-10" edge="1">
          <mxGeometry width="160" relative="1" as="geometry">
            <mxPoint x="590" y="-160" as="sourcePoint" />
            <mxPoint x="930" y="-290" as="targetPoint" />
          </mxGeometry>
        </mxCell>
        <mxCell id="dVDMhMBenEkxvUkVHYLV-23" value="" style="endArrow=diamondThin;endFill=0;endSize=24;html=1;rounded=0;entryX=0;entryY=0.5;entryDx=0;entryDy=0;exitX=1;exitY=0.5;exitDx=0;exitDy=0;" parent="1" source="dVDMhMBenEkxvUkVHYLV-7" target="dVDMhMBenEkxvUkVHYLV-11" edge="1">
          <mxGeometry width="160" relative="1" as="geometry">
            <mxPoint x="590" y="-160" as="sourcePoint" />
            <mxPoint x="750" y="-160" as="targetPoint" />
          </mxGeometry>
        </mxCell>
        <mxCell id="dVDMhMBenEkxvUkVHYLV-24" value="" style="endArrow=diamondThin;endFill=0;endSize=24;html=1;rounded=0;entryX=1;entryY=0.25;entryDx=0;entryDy=0;exitX=-0.009;exitY=0.206;exitDx=0;exitDy=0;exitPerimeter=0;" parent="1" source="dVDMhMBenEkxvUkVHYLV-11" target="dVDMhMBenEkxvUkVHYLV-6" edge="1">
          <mxGeometry width="160" relative="1" as="geometry">
            <mxPoint x="590" y="-160" as="sourcePoint" />
            <mxPoint x="750" y="-160" as="targetPoint" />
          </mxGeometry>
        </mxCell>
        <mxCell id="dVDMhMBenEkxvUkVHYLV-25" value="n" style="edgeLabel;html=1;align=center;verticalAlign=middle;resizable=0;points=[];" parent="dVDMhMBenEkxvUkVHYLV-24" vertex="1" connectable="0">
          <mxGeometry x="0.4309" y="-2" relative="1" as="geometry">
            <mxPoint as="offset" />
          </mxGeometry>
        </mxCell>
        <mxCell id="dVDMhMBenEkxvUkVHYLV-26" value="n" style="edgeLabel;html=1;align=center;verticalAlign=middle;resizable=0;points=[];" parent="dVDMhMBenEkxvUkVHYLV-24" vertex="1" connectable="0">
          <mxGeometry x="-0.7429" y="-2" relative="1" as="geometry">
            <mxPoint as="offset" />
          </mxGeometry>
        </mxCell>
        <mxCell id="dVDMhMBenEkxvUkVHYLV-27" value="&amp;lt;&amp;lt;interface&amp;gt;&amp;gt; IUserRepository" style="swimlane;fontStyle=1;align=center;verticalAlign=top;childLayout=stackLayout;horizontal=1;startSize=26;horizontalStack=0;resizeParent=1;resizeParentMax=0;resizeLast=0;collapsible=1;marginBottom=0;whiteSpace=wrap;html=1;" parent="1" vertex="1">
          <mxGeometry x="172.5" y="390" width="360" height="90" as="geometry" />
        </mxCell>
        <mxCell id="dVDMhMBenEkxvUkVHYLV-29" value="" style="line;strokeWidth=1;fillColor=none;align=left;verticalAlign=middle;spacingTop=-1;spacingLeft=3;spacingRight=3;rotatable=0;labelPosition=right;points=[];portConstraint=eastwest;strokeColor=inherit;" parent="dVDMhMBenEkxvUkVHYLV-27" vertex="1">
          <mxGeometry y="26" width="360" height="8" as="geometry" />
        </mxCell>
        <mxCell id="dVDMhMBenEkxvUkVHYLV-30" value="&lt;div&gt;+ GetUserByEmail(email: string): User&lt;/div&gt;&lt;div&gt;+ AddUser(user: User)&lt;/div&gt;&lt;div&gt;+ DeleteUser(user : User)&lt;/div&gt;" style="text;strokeColor=none;fillColor=none;align=left;verticalAlign=top;spacingLeft=4;spacingRight=4;overflow=hidden;rotatable=0;points=[[0,0.5],[1,0.5]];portConstraint=eastwest;whiteSpace=wrap;html=1;" parent="dVDMhMBenEkxvUkVHYLV-27" vertex="1">
          <mxGeometry y="34" width="360" height="56" as="geometry" />
        </mxCell>
        <mxCell id="dVDMhMBenEkxvUkVHYLV-34" value="&amp;lt;&amp;lt;interface&amp;gt;&amp;gt; IStudentRepository" style="swimlane;fontStyle=1;align=center;verticalAlign=top;childLayout=stackLayout;horizontal=1;startSize=26;horizontalStack=0;resizeParent=1;resizeParentMax=0;resizeLast=0;collapsible=1;marginBottom=0;whiteSpace=wrap;html=1;" parent="1" vertex="1">
          <mxGeometry x="172.5" y="250" width="350" height="80" as="geometry" />
        </mxCell>
        <mxCell id="dVDMhMBenEkxvUkVHYLV-36" value="" style="line;strokeWidth=1;fillColor=none;align=left;verticalAlign=middle;spacingTop=-1;spacingLeft=3;spacingRight=3;rotatable=0;labelPosition=right;points=[];portConstraint=eastwest;strokeColor=inherit;" parent="dVDMhMBenEkxvUkVHYLV-34" vertex="1">
          <mxGeometry y="26" width="350" height="8" as="geometry" />
        </mxCell>
        <mxCell id="dVDMhMBenEkxvUkVHYLV-37" value="&lt;div&gt;+ GetStudents(): List&amp;lt;Student&amp;gt;&lt;/div&gt;&lt;div&gt;+ EnrollInCourse(studentId: string, courseId: string)&lt;/div&gt;&lt;div&gt;&lt;br&gt;&lt;/div&gt;" style="text;strokeColor=none;fillColor=none;align=left;verticalAlign=top;spacingLeft=4;spacingRight=4;overflow=hidden;rotatable=0;points=[[0,0.5],[1,0.5]];portConstraint=eastwest;whiteSpace=wrap;html=1;" parent="dVDMhMBenEkxvUkVHYLV-34" vertex="1">
          <mxGeometry y="34" width="350" height="46" as="geometry" />
        </mxCell>
        <mxCell id="dVDMhMBenEkxvUkVHYLV-40" value="&amp;lt;&amp;lt;interface&amp;gt;&amp;gt; ICourseRepository" style="swimlane;fontStyle=1;align=center;verticalAlign=top;childLayout=stackLayout;horizontal=1;startSize=26;horizontalStack=0;resizeParent=1;resizeParentMax=0;resizeLast=0;collapsible=1;marginBottom=0;whiteSpace=wrap;html=1;" parent="1" vertex="1">
          <mxGeometry x="175" y="715" width="355" height="90" as="geometry" />
        </mxCell>
        <mxCell id="dVDMhMBenEkxvUkVHYLV-42" value="" style="line;strokeWidth=1;fillColor=none;align=left;verticalAlign=middle;spacingTop=-1;spacingLeft=3;spacingRight=3;rotatable=0;labelPosition=right;points=[];portConstraint=eastwest;strokeColor=inherit;" parent="dVDMhMBenEkxvUkVHYLV-40" vertex="1">
          <mxGeometry y="26" width="355" height="8" as="geometry" />
        </mxCell>
        <mxCell id="dVDMhMBenEkxvUkVHYLV-43" value="&lt;div&gt;+ AddCourse(course: Course)&lt;/div&gt;&lt;div&gt;+ GetCourses(): List&amp;lt;Course&amp;gt;&lt;/div&gt;&lt;div&gt;+ AssignStudent(courseId: string, studentId: string)&lt;/div&gt;&lt;div&gt;&lt;br&gt;&lt;/div&gt;" style="text;strokeColor=none;fillColor=none;align=left;verticalAlign=top;spacingLeft=4;spacingRight=4;overflow=hidden;rotatable=0;points=[[0,0.5],[1,0.5]];portConstraint=eastwest;whiteSpace=wrap;html=1;" parent="dVDMhMBenEkxvUkVHYLV-40" vertex="1">
          <mxGeometry y="34" width="355" height="56" as="geometry" />
        </mxCell>
        <mxCell id="dVDMhMBenEkxvUkVHYLV-45" value="Extends" style="endArrow=block;endSize=16;endFill=0;html=1;rounded=0;exitX=0.453;exitY=1.089;exitDx=0;exitDy=0;exitPerimeter=0;" parent="1" source="dVDMhMBenEkxvUkVHYLV-37" target="dVDMhMBenEkxvUkVHYLV-27" edge="1">
          <mxGeometry x="-0.3905" y="5" width="160" relative="1" as="geometry">
            <mxPoint x="335" y="736" as="sourcePoint" />
            <mxPoint x="495" y="736" as="targetPoint" />
            <mxPoint as="offset" />
          </mxGeometry>
        </mxCell>
        <mxCell id="dVDMhMBenEkxvUkVHYLV-46" value="&amp;lt;&amp;lt;interface&amp;gt;&amp;gt; ISubmissionRepository" style="swimlane;fontStyle=1;align=center;verticalAlign=top;childLayout=stackLayout;horizontal=1;startSize=26;horizontalStack=0;resizeParent=1;resizeParentMax=0;resizeLast=0;collapsible=1;marginBottom=0;whiteSpace=wrap;html=1;" parent="1" vertex="1">
          <mxGeometry x="175" y="880" width="360" height="80" as="geometry" />
        </mxCell>
        <mxCell id="dVDMhMBenEkxvUkVHYLV-48" value="" style="line;strokeWidth=1;fillColor=none;align=left;verticalAlign=middle;spacingTop=-1;spacingLeft=3;spacingRight=3;rotatable=0;labelPosition=right;points=[];portConstraint=eastwest;strokeColor=inherit;" parent="dVDMhMBenEkxvUkVHYLV-46" vertex="1">
          <mxGeometry y="26" width="360" height="8" as="geometry" />
        </mxCell>
        <mxCell id="dVDMhMBenEkxvUkVHYLV-49" value="&lt;div&gt;+ AddSubmission(submission: Submission)&lt;/div&gt;&lt;div&gt;+ GetSubmissionsByStudent(studentId: string): List&amp;lt;Submission&amp;gt;&lt;/div&gt;" style="text;strokeColor=none;fillColor=none;align=left;verticalAlign=top;spacingLeft=4;spacingRight=4;overflow=hidden;rotatable=0;points=[[0,0.5],[1,0.5]];portConstraint=eastwest;whiteSpace=wrap;html=1;" parent="dVDMhMBenEkxvUkVHYLV-46" vertex="1">
          <mxGeometry y="34" width="360" height="46" as="geometry" />
        </mxCell>
        <mxCell id="dVDMhMBenEkxvUkVHYLV-52" value="AuthenticationService" style="swimlane;fontStyle=1;align=center;verticalAlign=top;childLayout=stackLayout;horizontal=1;startSize=26;horizontalStack=0;resizeParent=1;resizeParentMax=0;resizeLast=0;collapsible=1;marginBottom=0;whiteSpace=wrap;html=1;" parent="1" vertex="1">
          <mxGeometry x="652.5" y="1130" width="400" height="70" as="geometry" />
        </mxCell>
        <mxCell id="dVDMhMBenEkxvUkVHYLV-54" value="" style="line;strokeWidth=1;fillColor=none;align=left;verticalAlign=middle;spacingTop=-1;spacingLeft=3;spacingRight=3;rotatable=0;labelPosition=right;points=[];portConstraint=eastwest;strokeColor=inherit;" parent="dVDMhMBenEkxvUkVHYLV-52" vertex="1">
          <mxGeometry y="26" width="400" height="8" as="geometry" />
        </mxCell>
        <mxCell id="dVDMhMBenEkxvUkVHYLV-55" value="&lt;div&gt;+ Login(email: string, password: string): bool&lt;/div&gt;" style="text;strokeColor=none;fillColor=none;align=left;verticalAlign=top;spacingLeft=4;spacingRight=4;overflow=hidden;rotatable=0;points=[[0,0.5],[1,0.5]];portConstraint=eastwest;whiteSpace=wrap;html=1;" parent="dVDMhMBenEkxvUkVHYLV-52" vertex="1">
          <mxGeometry y="34" width="400" height="36" as="geometry" />
        </mxCell>
        <mxCell id="dVDMhMBenEkxvUkVHYLV-56" value="UserManagementService" style="swimlane;fontStyle=1;align=center;verticalAlign=top;childLayout=stackLayout;horizontal=1;startSize=26;horizontalStack=0;resizeParent=1;resizeParentMax=0;resizeLast=0;collapsible=1;marginBottom=0;whiteSpace=wrap;html=1;" parent="1" vertex="1">
          <mxGeometry x="625" y="370" width="440" height="100" as="geometry" />
        </mxCell>
        <mxCell id="dVDMhMBenEkxvUkVHYLV-57" value="- _userRepo: IUserRepository&amp;nbsp;" style="text;strokeColor=none;fillColor=none;align=left;verticalAlign=top;spacingLeft=4;spacingRight=4;overflow=hidden;rotatable=0;points=[[0,0.5],[1,0.5]];portConstraint=eastwest;whiteSpace=wrap;html=1;" parent="dVDMhMBenEkxvUkVHYLV-56" vertex="1">
          <mxGeometry y="26" width="440" height="26" as="geometry" />
        </mxCell>
        <mxCell id="dVDMhMBenEkxvUkVHYLV-58" value="" style="line;strokeWidth=1;fillColor=none;align=left;verticalAlign=middle;spacingTop=-1;spacingLeft=3;spacingRight=3;rotatable=0;labelPosition=right;points=[];portConstraint=eastwest;strokeColor=inherit;" parent="dVDMhMBenEkxvUkVHYLV-56" vertex="1">
          <mxGeometry y="52" width="440" height="8" as="geometry" />
        </mxCell>
        <mxCell id="dVDMhMBenEkxvUkVHYLV-59" value="&lt;div&gt;+ CreateUser(user: User)&lt;/div&gt;&lt;div&gt;+ DeleteUser(userId: string)&lt;/div&gt;&lt;div&gt;&lt;br&gt;&lt;/div&gt;" style="text;strokeColor=none;fillColor=none;align=left;verticalAlign=top;spacingLeft=4;spacingRight=4;overflow=hidden;rotatable=0;points=[[0,0.5],[1,0.5]];portConstraint=eastwest;whiteSpace=wrap;html=1;" parent="dVDMhMBenEkxvUkVHYLV-56" vertex="1">
          <mxGeometry y="60" width="440" height="40" as="geometry" />
        </mxCell>
        <mxCell id="dVDMhMBenEkxvUkVHYLV-60" value="CourseManagementService" style="swimlane;fontStyle=1;align=center;verticalAlign=top;childLayout=stackLayout;horizontal=1;startSize=26;horizontalStack=0;resizeParent=1;resizeParentMax=0;resizeLast=0;collapsible=1;marginBottom=0;whiteSpace=wrap;html=1;" parent="1" vertex="1">
          <mxGeometry x="632.5" y="710" width="440" height="100" as="geometry" />
        </mxCell>
        <mxCell id="dVDMhMBenEkxvUkVHYLV-61" value="- _courseRepo: ICourseRepository&amp;nbsp;" style="text;strokeColor=none;fillColor=none;align=left;verticalAlign=top;spacingLeft=4;spacingRight=4;overflow=hidden;rotatable=0;points=[[0,0.5],[1,0.5]];portConstraint=eastwest;whiteSpace=wrap;html=1;" parent="dVDMhMBenEkxvUkVHYLV-60" vertex="1">
          <mxGeometry y="26" width="440" height="26" as="geometry" />
        </mxCell>
        <mxCell id="dVDMhMBenEkxvUkVHYLV-62" value="" style="line;strokeWidth=1;fillColor=none;align=left;verticalAlign=middle;spacingTop=-1;spacingLeft=3;spacingRight=3;rotatable=0;labelPosition=right;points=[];portConstraint=eastwest;strokeColor=inherit;" parent="dVDMhMBenEkxvUkVHYLV-60" vertex="1">
          <mxGeometry y="52" width="440" height="8" as="geometry" />
        </mxCell>
        <mxCell id="dVDMhMBenEkxvUkVHYLV-63" value="&lt;div&gt;+ CreateCourse(course: Course)&lt;/div&gt;&lt;div&gt;+ AddAssignment(courseId: string, assignment: Assignment)&lt;/div&gt;" style="text;strokeColor=none;fillColor=none;align=left;verticalAlign=top;spacingLeft=4;spacingRight=4;overflow=hidden;rotatable=0;points=[[0,0.5],[1,0.5]];portConstraint=eastwest;whiteSpace=wrap;html=1;" parent="dVDMhMBenEkxvUkVHYLV-60" vertex="1">
          <mxGeometry y="60" width="440" height="40" as="geometry" />
        </mxCell>
        <mxCell id="dVDMhMBenEkxvUkVHYLV-64" value="EnrollmentService" style="swimlane;fontStyle=1;align=center;verticalAlign=top;childLayout=stackLayout;horizontal=1;startSize=26;horizontalStack=0;resizeParent=1;resizeParentMax=0;resizeLast=0;collapsible=1;marginBottom=0;whiteSpace=wrap;html=1;" parent="1" vertex="1">
          <mxGeometry x="625" y="250" width="440" height="86" as="geometry" />
        </mxCell>
        <mxCell id="dVDMhMBenEkxvUkVHYLV-65" value="- _studentRepo: IStudentRepository" style="text;strokeColor=none;fillColor=none;align=left;verticalAlign=top;spacingLeft=4;spacingRight=4;overflow=hidden;rotatable=0;points=[[0,0.5],[1,0.5]];portConstraint=eastwest;whiteSpace=wrap;html=1;" parent="dVDMhMBenEkxvUkVHYLV-64" vertex="1">
          <mxGeometry y="26" width="440" height="26" as="geometry" />
        </mxCell>
        <mxCell id="dVDMhMBenEkxvUkVHYLV-66" value="" style="line;strokeWidth=1;fillColor=none;align=left;verticalAlign=middle;spacingTop=-1;spacingLeft=3;spacingRight=3;rotatable=0;labelPosition=right;points=[];portConstraint=eastwest;strokeColor=inherit;" parent="dVDMhMBenEkxvUkVHYLV-64" vertex="1">
          <mxGeometry y="52" width="440" height="8" as="geometry" />
        </mxCell>
        <mxCell id="dVDMhMBenEkxvUkVHYLV-67" value="+ EnrollStudent(studentId: string, courseId: string)" style="text;strokeColor=none;fillColor=none;align=left;verticalAlign=top;spacingLeft=4;spacingRight=4;overflow=hidden;rotatable=0;points=[[0,0.5],[1,0.5]];portConstraint=eastwest;whiteSpace=wrap;html=1;" parent="dVDMhMBenEkxvUkVHYLV-64" vertex="1">
          <mxGeometry y="60" width="440" height="26" as="geometry" />
        </mxCell>
        <mxCell id="dVDMhMBenEkxvUkVHYLV-68" value="SubmissionService" style="swimlane;fontStyle=1;align=center;verticalAlign=top;childLayout=stackLayout;horizontal=1;startSize=26;horizontalStack=0;resizeParent=1;resizeParentMax=0;resizeLast=0;collapsible=1;marginBottom=0;whiteSpace=wrap;html=1;" parent="1" vertex="1">
          <mxGeometry x="632.5" y="856" width="430" height="110" as="geometry" />
        </mxCell>
        <mxCell id="dVDMhMBenEkxvUkVHYLV-69" value="- _submissionRepo: ISubmissionRepository" style="text;strokeColor=none;fillColor=none;align=left;verticalAlign=top;spacingLeft=4;spacingRight=4;overflow=hidden;rotatable=0;points=[[0,0.5],[1,0.5]];portConstraint=eastwest;whiteSpace=wrap;html=1;" parent="dVDMhMBenEkxvUkVHYLV-68" vertex="1">
          <mxGeometry y="26" width="430" height="24" as="geometry" />
        </mxCell>
        <mxCell id="dVDMhMBenEkxvUkVHYLV-70" value="" style="line;strokeWidth=1;fillColor=none;align=left;verticalAlign=middle;spacingTop=-1;spacingLeft=3;spacingRight=3;rotatable=0;labelPosition=right;points=[];portConstraint=eastwest;strokeColor=inherit;" parent="dVDMhMBenEkxvUkVHYLV-68" vertex="1">
          <mxGeometry y="50" width="430" height="20" as="geometry" />
        </mxCell>
        <mxCell id="dVDMhMBenEkxvUkVHYLV-71" value="&lt;div&gt;+ SubmitAssignment(studentId: string, assignmentId: string, filePath: string)&lt;/div&gt;&lt;div&gt;+ GradeSubmission(studentId: string, assignmentId: string, score: int)&lt;/div&gt;" style="text;strokeColor=none;fillColor=none;align=left;verticalAlign=top;spacingLeft=4;spacingRight=4;overflow=hidden;rotatable=0;points=[[0,0.5],[1,0.5]];portConstraint=eastwest;whiteSpace=wrap;html=1;" parent="dVDMhMBenEkxvUkVHYLV-68" vertex="1">
          <mxGeometry y="70" width="430" height="40" as="geometry" />
        </mxCell>
        <mxCell id="dVDMhMBenEkxvUkVHYLV-73" value="Use" style="endArrow=open;endSize=12;dashed=1;html=1;rounded=0;entryX=1.007;entryY=0.268;entryDx=0;entryDy=0;entryPerimeter=0;exitX=0;exitY=0.5;exitDx=0;exitDy=0;" parent="1" source="dVDMhMBenEkxvUkVHYLV-57" target="dVDMhMBenEkxvUkVHYLV-30" edge="1">
          <mxGeometry width="160" relative="1" as="geometry">
            <mxPoint x="625" y="576" as="sourcePoint" />
            <mxPoint x="785" y="576" as="targetPoint" />
          </mxGeometry>
        </mxCell>
        <mxCell id="dVDMhMBenEkxvUkVHYLV-75" value="Use" style="endArrow=open;endSize=12;dashed=1;html=1;rounded=0;entryX=1;entryY=0.5;entryDx=0;entryDy=0;exitX=0;exitY=0.5;exitDx=0;exitDy=0;" parent="1" source="dVDMhMBenEkxvUkVHYLV-63" target="dVDMhMBenEkxvUkVHYLV-43" edge="1">
          <mxGeometry width="160" relative="1" as="geometry">
            <mxPoint x="792.5" y="956" as="sourcePoint" />
            <mxPoint x="952.5" y="956" as="targetPoint" />
          </mxGeometry>
        </mxCell>
        <mxCell id="dVDMhMBenEkxvUkVHYLV-76" value="Use" style="endArrow=open;endSize=12;dashed=1;html=1;rounded=0;entryX=1.011;entryY=0.109;entryDx=0;entryDy=0;exitX=0;exitY=0.5;exitDx=0;exitDy=0;entryPerimeter=0;" parent="1" source="dVDMhMBenEkxvUkVHYLV-65" target="dVDMhMBenEkxvUkVHYLV-37" edge="1">
          <mxGeometry width="160" relative="1" as="geometry">
            <mxPoint x="785" y="576" as="sourcePoint" />
            <mxPoint x="945" y="576" as="targetPoint" />
          </mxGeometry>
        </mxCell>
        <mxCell id="dVDMhMBenEkxvUkVHYLV-77" value="Use" style="endArrow=open;endSize=12;dashed=1;html=1;rounded=0;entryX=1;entryY=0.5;entryDx=0;entryDy=0;exitX=0;exitY=0.5;exitDx=0;exitDy=0;" parent="1" edge="1">
          <mxGeometry width="160" relative="1" as="geometry">
            <mxPoint x="627.5" y="1046.5" as="sourcePoint" />
            <mxPoint x="535" y="1043.5000000000005" as="targetPoint" />
          </mxGeometry>
        </mxCell>
        <mxCell id="dVDMhMBenEkxvUkVHYLV-78" value="StudentController" style="swimlane;fontStyle=1;align=center;verticalAlign=top;childLayout=stackLayout;horizontal=1;startSize=26;horizontalStack=0;resizeParent=1;resizeParentMax=0;resizeLast=0;collapsible=1;marginBottom=0;whiteSpace=wrap;html=1;" parent="1" vertex="1">
          <mxGeometry x="800" y="1220" width="400" height="104" as="geometry" />
        </mxCell>
        <mxCell id="dVDMhMBenEkxvUkVHYLV-79" value="&lt;div&gt;- _enrollmentService: EnrollmentService&amp;nbsp;&amp;nbsp;&lt;/div&gt;&lt;div&gt;- _submissionService: SubmissionService&lt;/div&gt;" style="text;strokeColor=none;fillColor=none;align=left;verticalAlign=top;spacingLeft=4;spacingRight=4;overflow=hidden;rotatable=0;points=[[0,0.5],[1,0.5]];portConstraint=eastwest;whiteSpace=wrap;html=1;" parent="dVDMhMBenEkxvUkVHYLV-78" vertex="1">
          <mxGeometry y="26" width="400" height="44" as="geometry" />
        </mxCell>
        <mxCell id="dVDMhMBenEkxvUkVHYLV-80" value="" style="line;strokeWidth=1;fillColor=none;align=left;verticalAlign=middle;spacingTop=-1;spacingLeft=3;spacingRight=3;rotatable=0;labelPosition=right;points=[];portConstraint=eastwest;strokeColor=inherit;" parent="dVDMhMBenEkxvUkVHYLV-78" vertex="1">
          <mxGeometry y="70" width="400" height="8" as="geometry" />
        </mxCell>
        <mxCell id="dVDMhMBenEkxvUkVHYLV-81" value="+ method(type): type" style="text;strokeColor=none;fillColor=none;align=left;verticalAlign=top;spacingLeft=4;spacingRight=4;overflow=hidden;rotatable=0;points=[[0,0.5],[1,0.5]];portConstraint=eastwest;whiteSpace=wrap;html=1;" parent="dVDMhMBenEkxvUkVHYLV-78" vertex="1">
          <mxGeometry y="78" width="400" height="26" as="geometry" />
        </mxCell>
        <mxCell id="2BN9B5K6P6ztOIFf0Y96-1" value="&amp;lt;&amp;lt;interface&amp;gt;&amp;gt; IAuthenticationService" style="swimlane;fontStyle=1;align=center;verticalAlign=top;childLayout=stackLayout;horizontal=1;startSize=26;horizontalStack=0;resizeParent=1;resizeParentMax=0;resizeLast=0;collapsible=1;marginBottom=0;whiteSpace=wrap;html=1;" parent="1" vertex="1">
          <mxGeometry x="175" y="1125" width="360" height="80" as="geometry" />
        </mxCell>
        <mxCell id="2BN9B5K6P6ztOIFf0Y96-2" value="" style="line;strokeWidth=1;fillColor=none;align=left;verticalAlign=middle;spacingTop=-1;spacingLeft=3;spacingRight=3;rotatable=0;labelPosition=right;points=[];portConstraint=eastwest;strokeColor=inherit;" parent="2BN9B5K6P6ztOIFf0Y96-1" vertex="1">
          <mxGeometry y="26" width="360" height="8" as="geometry" />
        </mxCell>
        <mxCell id="2BN9B5K6P6ztOIFf0Y96-3" value="&lt;div&gt;+ AddSubmission(submission: Submission)&lt;/div&gt;&lt;div&gt;+ GetSubmissionsByStudent(studentId: string): List&amp;lt;Submission&amp;gt;&lt;/div&gt;" style="text;strokeColor=none;fillColor=none;align=left;verticalAlign=top;spacingLeft=4;spacingRight=4;overflow=hidden;rotatable=0;points=[[0,0.5],[1,0.5]];portConstraint=eastwest;whiteSpace=wrap;html=1;" parent="2BN9B5K6P6ztOIFf0Y96-1" vertex="1">
          <mxGeometry y="34" width="360" height="46" as="geometry" />
        </mxCell>
        <mxCell id="OUwmitHfr5me8IUkzTxP-1" value="&amp;lt;&amp;lt;interface&amp;gt;&amp;gt; IReportRepository" style="swimlane;fontStyle=1;align=center;verticalAlign=top;childLayout=stackLayout;horizontal=1;startSize=26;horizontalStack=0;resizeParent=1;resizeParentMax=0;resizeLast=0;collapsible=1;marginBottom=0;whiteSpace=wrap;html=1;" parent="1" vertex="1">
          <mxGeometry x="172.5" y="1005" width="360" height="80" as="geometry" />
        </mxCell>
        <mxCell id="OUwmitHfr5me8IUkzTxP-2" value="" style="line;strokeWidth=1;fillColor=none;align=left;verticalAlign=middle;spacingTop=-1;spacingLeft=3;spacingRight=3;rotatable=0;labelPosition=right;points=[];portConstraint=eastwest;strokeColor=inherit;" parent="OUwmitHfr5me8IUkzTxP-1" vertex="1">
          <mxGeometry y="26" width="360" height="8" as="geometry" />
        </mxCell>
        <mxCell id="OUwmitHfr5me8IUkzTxP-3" value="&lt;div&gt;+ GenerateStudentReport(studentId: string): Report&lt;/div&gt;&lt;div&gt;+ GenerateCourseReport(courseId: string): Report&lt;/div&gt;" style="text;strokeColor=none;fillColor=none;align=left;verticalAlign=top;spacingLeft=4;spacingRight=4;overflow=hidden;rotatable=0;points=[[0,0.5],[1,0.5]];portConstraint=eastwest;whiteSpace=wrap;html=1;" parent="OUwmitHfr5me8IUkzTxP-1" vertex="1">
          <mxGeometry y="34" width="360" height="46" as="geometry" />
        </mxCell>
        <mxCell id="OUwmitHfr5me8IUkzTxP-4" value="&lt;b&gt;&lt;font style=&quot;font-size: 18px;&quot;&gt;Repository Interfaces Layer&lt;/font&gt;&lt;/b&gt;&lt;div&gt;&lt;strong data-end=&quot;3668&quot; data-start=&quot;3646&quot;&gt;Repository Pattern&lt;/strong&gt; → Tách logic truy cập dữ liệu.&lt;b&gt;&lt;font style=&quot;font-size: 18px;&quot;&gt;&lt;/font&gt;&lt;/b&gt;&lt;/div&gt;" style="text;html=1;align=center;verticalAlign=middle;resizable=0;points=[];autosize=1;strokeColor=none;fillColor=none;" parent="1" vertex="1">
          <mxGeometry x="200" y="180" width="290" height="60" as="geometry" />
        </mxCell>
        <mxCell id="OUwmitHfr5me8IUkzTxP-11" value="ReportService" style="swimlane;fontStyle=1;align=center;verticalAlign=top;childLayout=stackLayout;horizontal=1;startSize=26;horizontalStack=0;resizeParent=1;resizeParentMax=0;resizeLast=0;collapsible=1;marginBottom=0;whiteSpace=wrap;html=1;" parent="1" vertex="1">
          <mxGeometry x="632.5" y="990" width="430" height="110" as="geometry" />
        </mxCell>
        <mxCell id="OUwmitHfr5me8IUkzTxP-12" value="- _reportRepo: IReportRepository" style="text;strokeColor=none;fillColor=none;align=left;verticalAlign=top;spacingLeft=4;spacingRight=4;overflow=hidden;rotatable=0;points=[[0,0.5],[1,0.5]];portConstraint=eastwest;whiteSpace=wrap;html=1;" parent="OUwmitHfr5me8IUkzTxP-11" vertex="1">
          <mxGeometry y="26" width="430" height="24" as="geometry" />
        </mxCell>
        <mxCell id="OUwmitHfr5me8IUkzTxP-13" value="" style="line;strokeWidth=1;fillColor=none;align=left;verticalAlign=middle;spacingTop=-1;spacingLeft=3;spacingRight=3;rotatable=0;labelPosition=right;points=[];portConstraint=eastwest;strokeColor=inherit;" parent="OUwmitHfr5me8IUkzTxP-11" vertex="1">
          <mxGeometry y="50" width="430" height="20" as="geometry" />
        </mxCell>
        <mxCell id="OUwmitHfr5me8IUkzTxP-14" value="&lt;div&gt;+ GenerateStudentReport(studentId: string)&lt;/div&gt;&lt;div&gt;+ GenerateCourseReport(courseId: string)&lt;/div&gt;" style="text;strokeColor=none;fillColor=none;align=left;verticalAlign=top;spacingLeft=4;spacingRight=4;overflow=hidden;rotatable=0;points=[[0,0.5],[1,0.5]];portConstraint=eastwest;whiteSpace=wrap;html=1;" parent="OUwmitHfr5me8IUkzTxP-11" vertex="1">
          <mxGeometry y="70" width="430" height="40" as="geometry" />
        </mxCell>
        <mxCell id="v3wkTu-yi36SojuRRxv9-2" value="Report" style="swimlane;fontStyle=1;align=center;verticalAlign=top;childLayout=stackLayout;horizontal=1;startSize=26;horizontalStack=0;resizeParent=1;resizeParentMax=0;resizeLast=0;collapsible=1;marginBottom=0;whiteSpace=wrap;html=1;" parent="1" vertex="1">
          <mxGeometry x="760" y="-120" width="170" height="108" as="geometry" />
        </mxCell>
        <mxCell id="v3wkTu-yi36SojuRRxv9-3" value="&lt;div&gt;- ReportId: string&lt;/div&gt;&lt;div&gt;- ReportType: string&lt;/div&gt;&lt;div&gt;- GeneratedAt: DateTime&lt;/div&gt;&lt;div&gt;- Data: object&lt;/div&gt;" style="text;strokeColor=none;fillColor=none;align=left;verticalAlign=top;spacingLeft=4;spacingRight=4;overflow=hidden;rotatable=0;points=[[0,0.5],[1,0.5]];portConstraint=eastwest;whiteSpace=wrap;html=1;" parent="v3wkTu-yi36SojuRRxv9-2" vertex="1">
          <mxGeometry y="26" width="170" height="74" as="geometry" />
        </mxCell>
        <mxCell id="v3wkTu-yi36SojuRRxv9-4" value="" style="line;strokeWidth=1;fillColor=none;align=left;verticalAlign=middle;spacingTop=-1;spacingLeft=3;spacingRight=3;rotatable=0;labelPosition=right;points=[];portConstraint=eastwest;strokeColor=inherit;" parent="v3wkTu-yi36SojuRRxv9-2" vertex="1">
          <mxGeometry y="100" width="170" height="8" as="geometry" />
        </mxCell>
        <mxCell id="v3wkTu-yi36SojuRRxv9-5" value="&lt;font style=&quot;font-size: 18px;&quot;&gt;&lt;b&gt;&lt;span data-end=&quot;3727&quot; data-start=&quot;3702&quot;&gt;Service Layer Pattern&lt;/span&gt;&amp;nbsp;&lt;/b&gt;&lt;/font&gt;&lt;div&gt;→ Chia nhỏ chức năng nghiệp vụ.&lt;/div&gt;" style="text;html=1;align=center;verticalAlign=middle;resizable=0;points=[];autosize=1;strokeColor=none;fillColor=none;" parent="1" vertex="1">
          <mxGeometry x="750" y="180" width="210" height="50" as="geometry" />
        </mxCell>
        <mxCell id="rHxzk1M5DzqWwl0raQuY-1" value="" style="endArrow=diamondThin;endFill=1;endSize=24;html=1;rounded=0;exitX=1;exitY=0.5;exitDx=0;exitDy=0;entryX=0;entryY=0.5;entryDx=0;entryDy=0;" parent="1" source="dVDMhMBenEkxvUkVHYLV-19" target="dVDMhMBenEkxvUkVHYLV-15" edge="1">
          <mxGeometry width="160" relative="1" as="geometry">
            <mxPoint x="740" y="-410" as="sourcePoint" />
            <mxPoint x="742" y="-339" as="targetPoint" />
          </mxGeometry>
        </mxCell>
        <mxCell id="rHxzk1M5DzqWwl0raQuY-2" value="" style="endArrow=diamondThin;endFill=0;endSize=24;html=1;rounded=0;exitX=1;exitY=0.5;exitDx=0;exitDy=0;entryX=0.506;entryY=0.404;entryDx=0;entryDy=0;entryPerimeter=0;" parent="1" source="Y3dAuCJhpeIYonLnR9uq-10" target="dVDMhMBenEkxvUkVHYLV-12" edge="1">
          <mxGeometry width="160" relative="1" as="geometry">
            <mxPoint x="938" y="93" as="sourcePoint" />
            <mxPoint x="940" y="-162" as="targetPoint" />
            <Array as="points">
              <mxPoint x="991" y="50" />
            </Array>
          </mxGeometry>
        </mxCell>
        <mxCell id="rHxzk1M5DzqWwl0raQuY-3" value="n" style="edgeLabel;html=1;align=center;verticalAlign=middle;resizable=0;points=[];" parent="rHxzk1M5DzqWwl0raQuY-2" vertex="1" connectable="0">
          <mxGeometry x="0.4309" y="-2" relative="1" as="geometry">
            <mxPoint as="offset" />
          </mxGeometry>
        </mxCell>
        <mxCell id="rHxzk1M5DzqWwl0raQuY-4" value="n" style="edgeLabel;html=1;align=center;verticalAlign=middle;resizable=0;points=[];" parent="rHxzk1M5DzqWwl0raQuY-2" vertex="1" connectable="0">
          <mxGeometry x="-0.7429" y="-2" relative="1" as="geometry">
            <mxPoint as="offset" />
          </mxGeometry>
        </mxCell>
        <mxCell id="rHxzk1M5DzqWwl0raQuY-6" value="" style="endArrow=none;html=1;rounded=0;entryX=0.5;entryY=1;entryDx=0;entryDy=0;exitX=0.5;exitY=0;exitDx=0;exitDy=0;" parent="1" source="dVDMhMBenEkxvUkVHYLV-6" target="dVDMhMBenEkxvUkVHYLV-18" edge="1">
          <mxGeometry width="50" height="50" relative="1" as="geometry">
            <mxPoint x="660" y="-210" as="sourcePoint" />
            <mxPoint x="710" y="-260" as="targetPoint" />
          </mxGeometry>
        </mxCell>
        <mxCell id="rHxzk1M5DzqWwl0raQuY-7" value="" style="endArrow=none;html=1;rounded=0;entryX=0.25;entryY=1;entryDx=0;entryDy=0;exitX=0.5;exitY=0;exitDx=0;exitDy=0;" parent="1" source="v3wkTu-yi36SojuRRxv9-2" target="dVDMhMBenEkxvUkVHYLV-10" edge="1">
          <mxGeometry width="50" height="50" relative="1" as="geometry">
            <mxPoint x="880" y="-50" as="sourcePoint" />
            <mxPoint x="930" y="-100" as="targetPoint" />
          </mxGeometry>
        </mxCell>
        <mxCell id="rHxzk1M5DzqWwl0raQuY-8" value="Use" style="endArrow=open;endSize=12;dashed=1;html=1;rounded=0;entryX=1;entryY=0.5;entryDx=0;entryDy=0;exitX=0;exitY=0.5;exitDx=0;exitDy=0;" parent="1" edge="1">
          <mxGeometry width="160" relative="1" as="geometry">
            <mxPoint x="630" y="905" as="sourcePoint" />
            <mxPoint x="535" y="917" as="targetPoint" />
          </mxGeometry>
        </mxCell>
        <mxCell id="rHxzk1M5DzqWwl0raQuY-9" value="Use" style="endArrow=open;endSize=12;dashed=1;html=1;rounded=0;entryX=1;entryY=0.174;entryDx=0;entryDy=0;exitX=-0.01;exitY=0.166;exitDx=0;exitDy=0;exitPerimeter=0;entryPerimeter=0;" parent="1" source="dVDMhMBenEkxvUkVHYLV-55" target="2BN9B5K6P6ztOIFf0Y96-3" edge="1">
          <mxGeometry width="160" relative="1" as="geometry">
            <mxPoint x="625" y="1126.5" as="sourcePoint" />
            <mxPoint x="532.5" y="1123.5000000000005" as="targetPoint" />
          </mxGeometry>
        </mxCell>
        <mxCell id="_9U2fF75jDlmdfeZfpIN-1" value="&amp;lt;&amp;lt;interface&amp;gt;&amp;gt; IFacultyRepository" style="swimlane;fontStyle=1;align=center;verticalAlign=top;childLayout=stackLayout;horizontal=1;startSize=26;horizontalStack=0;resizeParent=1;resizeParentMax=0;resizeLast=0;collapsible=1;marginBottom=0;whiteSpace=wrap;html=1;" vertex="1" parent="1">
          <mxGeometry x="158.75" y="530" width="350" height="80" as="geometry" />
        </mxCell>
        <mxCell id="_9U2fF75jDlmdfeZfpIN-2" value="" style="line;strokeWidth=1;fillColor=none;align=left;verticalAlign=middle;spacingTop=-1;spacingLeft=3;spacingRight=3;rotatable=0;labelPosition=right;points=[];portConstraint=eastwest;strokeColor=inherit;" vertex="1" parent="_9U2fF75jDlmdfeZfpIN-1">
          <mxGeometry y="26" width="350" height="8" as="geometry" />
        </mxCell>
        <mxCell id="_9U2fF75jDlmdfeZfpIN-3" value="&lt;div&gt;+ GetStudents(): List&amp;lt;Student&amp;gt;&lt;/div&gt;&lt;div&gt;+ EnrollInCourse(studentId: string, courseId: string)&lt;/div&gt;&lt;div&gt;&lt;br&gt;&lt;/div&gt;" style="text;strokeColor=none;fillColor=none;align=left;verticalAlign=top;spacingLeft=4;spacingRight=4;overflow=hidden;rotatable=0;points=[[0,0.5],[1,0.5]];portConstraint=eastwest;whiteSpace=wrap;html=1;" vertex="1" parent="_9U2fF75jDlmdfeZfpIN-1">
          <mxGeometry y="34" width="350" height="46" as="geometry" />
        </mxCell>
        <mxCell id="_9U2fF75jDlmdfeZfpIN-4" value="FalcultyService" style="swimlane;fontStyle=1;align=center;verticalAlign=top;childLayout=stackLayout;horizontal=1;startSize=26;horizontalStack=0;resizeParent=1;resizeParentMax=0;resizeLast=0;collapsible=1;marginBottom=0;whiteSpace=wrap;html=1;" vertex="1" parent="1">
          <mxGeometry x="611.25" y="530" width="440" height="86" as="geometry" />
        </mxCell>
        <mxCell id="_9U2fF75jDlmdfeZfpIN-5" value="- _studentRepo: IStudentRepository" style="text;strokeColor=none;fillColor=none;align=left;verticalAlign=top;spacingLeft=4;spacingRight=4;overflow=hidden;rotatable=0;points=[[0,0.5],[1,0.5]];portConstraint=eastwest;whiteSpace=wrap;html=1;" vertex="1" parent="_9U2fF75jDlmdfeZfpIN-4">
          <mxGeometry y="26" width="440" height="26" as="geometry" />
        </mxCell>
        <mxCell id="_9U2fF75jDlmdfeZfpIN-6" value="" style="line;strokeWidth=1;fillColor=none;align=left;verticalAlign=middle;spacingTop=-1;spacingLeft=3;spacingRight=3;rotatable=0;labelPosition=right;points=[];portConstraint=eastwest;strokeColor=inherit;" vertex="1" parent="_9U2fF75jDlmdfeZfpIN-4">
          <mxGeometry y="52" width="440" height="8" as="geometry" />
        </mxCell>
        <mxCell id="_9U2fF75jDlmdfeZfpIN-7" value="+ EnrollStudent(studentId: string, courseId: string)" style="text;strokeColor=none;fillColor=none;align=left;verticalAlign=top;spacingLeft=4;spacingRight=4;overflow=hidden;rotatable=0;points=[[0,0.5],[1,0.5]];portConstraint=eastwest;whiteSpace=wrap;html=1;" vertex="1" parent="_9U2fF75jDlmdfeZfpIN-4">
          <mxGeometry y="60" width="440" height="26" as="geometry" />
        </mxCell>
        <mxCell id="_9U2fF75jDlmdfeZfpIN-8" value="Use" style="endArrow=open;endSize=12;dashed=1;html=1;rounded=0;entryX=1.011;entryY=0.109;entryDx=0;entryDy=0;exitX=0;exitY=0.5;exitDx=0;exitDy=0;entryPerimeter=0;" edge="1" parent="1" source="_9U2fF75jDlmdfeZfpIN-5" target="_9U2fF75jDlmdfeZfpIN-3">
          <mxGeometry width="160" relative="1" as="geometry">
            <mxPoint x="771.25" y="856" as="sourcePoint" />
            <mxPoint x="931.25" y="856" as="targetPoint" />
          </mxGeometry>
        </mxCell>
      </root>
    </mxGraphModel>
  </diagram>
</mxfile>
